<svg xmlns="http://www.w3.org/2000/svg" viewBox="0 0 207.37 207"><defs><style>.a{fill:#008aa4;}</style></defs><path class="a" d="M151.92,85.79h28.79L157.82,104.1l10.36,31.06L143,115l-25.17,20.14,10.36-31.07L105.3,85.79H134l8.66-19.91ZM233.31,128c-7.21,7.33-17.12,11.24-29.43,11.74-8.87,11.72-19.11,17.9-28,23.22-11.6,7-18,10.8-18,24.12,0,21.93,8.53,31.28,28.51,31.28h6.73V248.5H92.84V218.35h6.74c18.61,0,27.55-4.7,28-31.4,0-13.15-6.31-16.93-17.75-23.8-8.87-5.33-19.13-11.51-28-23.42-12.68-.49-22.75-4.36-29.91-11.63-13.09-13.28-12.78-33.57-12.6-45.69,0-1.2,0-2.31,0-3.31V72.37h22C61,66.92,60.7,61.14,60.58,55H42.5V41.5H225.61v6.73c0,8.76-.32,16.75-.9,24.14h21.9V79.1c0,.69,0,1.5,0,2.4C246.81,92,247.16,113.92,233.31,128Zm-160-3c-4.57-10-8.26-22.69-10.47-39.2h-10c-.06,10.1.56,24.49,8.77,32.83A24.88,24.88,0,0,0,73.26,125ZM212.08,55H74c1.34,71.77,24.24,85.53,42.76,96.65,11.93,7.16,24.27,14.57,24.27,35.46-.51,28.81-11,42.42-34.76,44.47V235H179.7v-3.56c-23.09-2.4-35.24-17.63-35.24-44.41,0-20.93,12.46-28.42,24.52-35.66C187.64,140.2,210.72,126.33,212.08,55Zm21.14,30.87h-9.93c-2.24,16.44-6,29.11-10.58,39.05a24.67,24.67,0,0,0,11-6.33C232.24,109.89,233.2,95.27,233.22,85.83Z" transform="translate(-39.31 -41.5)"/></svg>