<?xml version="1.0" encoding="utf-8"?>
<!-- Generator: Adobe Illustrator 26.0.0, SVG Export Plug-In . SVG Version: 6.00 Build 0)  -->
<svg version="1.1" id="do_x27_s_black" xmlns="http://www.w3.org/2000/svg" xmlns:xlink="http://www.w3.org/1999/xlink" x="0px"
	 y="0px" viewBox="0 0 200.1 208.7" style="enable-background:new 0 0 200.1 208.7;" xml:space="preserve">
<style type="text/css">
	.st0{fill:#008AA4;}
</style>
<g>
	<path class="st0" d="M199.6,103.4C197.4-2.6,56.4-42.2,2,57.2c2.4,1.7,5.7,4.1,8.1,5.8C6,71.7,3.2,80.6,1.7,89.5
		c-1.1,5.8-1.6,11.8-1.6,17.9c0,55,44.7,99.6,99.8,99.6s99.8-44.6,99.8-99.6C199.7,106,199.6,104.7,199.6,103.4z M183.3,105.3
		c0,1.1,0,2.3-0.1,3.4c0,0.2,0,0.4,0,0.6c-0.4,10.2-2.6,20.6-6.7,30.9c-4.9,11.1-11.5,20.3-19.4,27.7
		c-14.8,14.5-34.8,23.5-56.9,24.2c-27.9,0.9-52.6-13.7-67.9-35.6c-4.6-6.2-8.4-13.1-11-20.6c-0.8-1.9-1.8-5.1-2.6-9.2
		c-1.2-5.4-1.8-11-1.8-16.8c0-13.1,3.3-26.1,9-36.9L17,67.5l9-13.9c2.8-4.4,6-8.4,9.6-12.1c20-20.5,50.6-28.8,80.1-21.4
		c37.7,9.4,63,40.1,67,75.6c0,0.3,0.1,0.5,0.1,0.8c0,0.4,0.1,0.8,0.1,1.3c0.1,1.1,0.2,2.3,0.3,3.5c0,0.5,0,0.9,0,1.4
		c0,0.7,0.1,1.4,0.1,2.1C183.3,104.8,183.3,105.1,183.3,105.3z"/>
	<path class="st0" d="M72.1,50.4l-1.4,1.4L46.5,76.1l-1.4,1.4l1.4,1.4l24.2,24.2l1.4,1.4l1.4-1.4l8.3-8.3l1.4-1.4l-1.4-1.4l-6.7-6.7
		h34.5c14.9,0,27.4,11.2,28.4,25.5c0.5,7.7-2.1,15-7.3,20.6c-5.2,5.5-12.5,8.7-20,8.7H80.4h-2v2v11.7v2h2h30.2
		c11.9,0,23-4.8,31.3-13.4c8.2-8.7,12.5-20,11.8-31.9c-1.1-23-20.6-41-44.4-41h-34l6.4-6.4l1.4-1.4l-1.4-1.4l-8.3-8.3L72.1,50.4
		L72.1,50.4z"/>
</g>
</svg>
